<?xml version="1.0" encoding="UTF-8"?>
<svg version="1.1" xmlns="http://www.w3.org/2000/svg" width="500" height="500">
<path d="M0 0 C165 0 330 0 500 0 C500 165 500 330 500 500 C335 500 170 500 0 500 C0 335 0 170 0 0 Z " fill="#0F27BC" transform="translate(0,0)"/>
<path d="M0 0 C4.30869321 0.60904836 6.60116296 2.37069421 9.59765625 5.3671875 C10.98984375 4.408125 10.98984375 4.408125 12.41015625 3.4296875 C17.99816099 -0.18608028 23.09892493 -0.35868919 29.59765625 0.3671875 C38.36352317 3.03732527 45.43496303 9.28725304 50.234375 16.99609375 C54.59733282 25.38447398 56.2931636 34.14768625 53.76171875 43.43359375 C49.60458177 54.35654091 43.16424269 61.45657472 32.59765625 66.3671875 C31.60765625 66.8621875 31.60765625 66.8621875 30.59765625 67.3671875 C28.39506223 67.56952553 26.18366799 67.68063899 23.97265625 67.7421875 C22.78414062 67.79117188 21.595625 67.84015625 20.37109375 67.890625 C15.53752545 67.22013002 12.49192605 65.18999099 8.59765625 62.3671875 C8.62384033 63.31037842 8.65002441 64.25356934 8.67700195 65.2253418 C8.76242547 68.73851895 8.82499923 72.25058658 8.87231445 75.7644043 C8.89739734 77.28248551 8.93147285 78.80044668 8.97485352 80.31811523 C9.03578918 82.50534715 9.0639252 84.69097789 9.0859375 86.87890625 C9.11212158 88.19334717 9.13830566 89.50778809 9.1652832 90.86206055 C8.45615108 95.24098951 7.05171079 96.67565456 3.59765625 99.3671875 C0.625 99.9609375 0.625 99.9609375 -2.46484375 99.8671875 C-3.48707031 99.856875 -4.50929688 99.8465625 -5.5625 99.8359375 C-8.72011145 99.31473616 -10.13083852 98.59147899 -12.40234375 96.3671875 C-13.66883231 92.56772182 -13.57423782 88.98802691 -13.59521484 85.02783203 C-13.60339233 84.17711121 -13.61156982 83.32639038 -13.61999512 82.44989014 C-13.6448183 79.63326724 -13.66135536 76.81669455 -13.67578125 74 C-13.68110493 73.03812649 -13.6864286 72.07625298 -13.6919136 71.08523178 C-13.71862909 65.99611966 -13.73801097 60.90703196 -13.75244141 55.81787109 C-13.76910485 50.55953813 -13.8139014 45.30183001 -13.86481285 40.0437336 C-13.89844604 36.00140655 -13.91001437 31.95922875 -13.91566849 27.91677475 C-13.92238951 25.9782622 -13.93763363 24.03975976 -13.9615593 22.10138321 C-13.99313605 19.38884504 -13.99325938 16.67800531 -13.98583984 13.96533203 C-14.00224518 13.16515656 -14.01865051 12.36498108 -14.03555298 11.54055786 C-13.99000614 7.47244214 -13.58702614 5.60132525 -11.03579712 2.36691284 C-7.22903689 -0.52376865 -4.61446042 -0.2111597 0 0 Z " fill="#FCFCFE" transform="translate(96.40234375,221.6328125)"/>
<path d="M0 0 C9.19414868 5.50363026 16.70039705 12.95409887 19.375 23.5625 C20.91043487 35.23008621 19.34617294 45.02456236 12.625 54.8125 C7.03877376 61.7952828 -0.725146 67.13551919 -9.625 68.5625 C-18.4192252 69.16934133 -25.91262381 69.25201688 -33.625 64.5625 C-34.635625 64.005625 -35.64625 63.44875 -36.6875 62.875 C-44.70105892 56.56645361 -50.97671351 48.78798102 -52.625 38.5625 C-53.63759872 26.97571469 -51.11977634 17.55169695 -43.61328125 8.56640625 C-32.30442999 -2.83131614 -14.84320246 -6.87715944 0 0 Z " fill="#FCFCFE" transform="translate(209.625,223.4375)"/>
<path d="M0 0 C1.3096875 -0.00128906 2.619375 -0.00257813 3.96875 -0.00390625 C7.5 0.5625 7.5 0.5625 9.953125 1.95703125 C12.40166512 6.08121372 11.9209228 10.11869683 11.75 14.8125 C11.73195313 15.74835938 11.71390625 16.68421875 11.6953125 17.6484375 C11.64825673 19.95417015 11.58253713 22.25780945 11.5 24.5625 C12.49 24.2325 13.48 23.9025 14.5 23.5625 C19.48594776 23.16115436 24.00039899 22.90267556 28.625 24.9375 C31.13614532 27.11382594 31.45571533 28.09877629 31.7734375 31.42578125 C31.82371094 33.13314453 31.82371094 33.13314453 31.875 34.875 C31.92398438 36.00550781 31.97296875 37.13601562 32.0234375 38.30078125 C31.5 41.5625 31.5 41.5625 29.46484375 44.4609375 C25.79150334 47.06470185 23.01156708 47.14396111 18.6875 46.875 C17.99462891 46.85244141 17.30175781 46.82988281 16.58789062 46.80664062 C14.89098427 46.74812661 13.19520139 46.6584548 11.5 46.5625 C11.63850705 50.02116792 11.78704727 53.47933275 11.9375 56.9375 C11.97681641 57.92234375 12.01613281 58.9071875 12.05664062 59.921875 C12.09853516 60.86289062 12.14042969 61.80390625 12.18359375 62.7734375 C12.23858032 64.07740479 12.23858032 64.07740479 12.29467773 65.40771484 C12.37401544 67.6108262 12.37401544 67.6108262 13.5 69.5625 C15.49287612 69.9550004 15.49287612 69.9550004 17.8125 70.0625 C21.1912172 70.28588626 23.61064444 70.73894084 26.5 72.5625 C29.46956761 77.01685142 29.01186394 81.33690392 28.5 86.5625 C27.12747293 89.68187969 26.520457 91.0522715 23.5 92.5625 C14.53664944 93.19459755 6.32718334 93.5545036 -1.5 88.5625 C-2.428125 88.005625 -3.35625 87.44875 -4.3125 86.875 C-9.76100315 81.11515381 -11.63709978 73.43405617 -11.59765625 65.703125 C-11.59443359 64.58808594 -11.59121094 63.47304688 -11.58789062 62.32421875 C-11.57951172 61.16535156 -11.57113281 60.00648438 -11.5625 58.8125 C-11.55798828 57.63816406 -11.55347656 56.46382812 -11.54882812 55.25390625 C-11.53705094 52.35671928 -11.52060326 49.45963546 -11.5 46.5625 C-12.758125 46.645 -14.01625 46.7275 -15.3125 46.8125 C-19.2090053 46.78838103 -19.2090053 46.78838103 -21.47265625 45.03125 C-22.89083365 41.62331038 -22.93387346 38.74706737 -22.9375 35.0625 C-22.95683594 33.7528125 -22.97617187 32.443125 -22.99609375 31.09375 C-22.5 27.5625 -22.5 27.5625 -20.91015625 25.09375 C-17.6711785 23.03592297 -15.26002688 23.27326716 -11.5 23.5625 C-11.54640625 22.32113281 -11.5928125 21.07976562 -11.640625 19.80078125 C-11.67815421 18.15887829 -11.71455314 16.51694923 -11.75 14.875 C-11.78351563 14.05837891 -11.81703125 13.24175781 -11.8515625 12.40039062 C-11.91506649 8.47901944 -11.75442847 6.06364698 -9.953125 2.515625 C-6.56402665 -0.18270172 -4.29042973 -0.07178869 0 0 Z " fill="#FAFBFD" transform="translate(321.5,198.4375)"/>
<path d="M0 0 C2 2 2 2 2.4375 4.625 C1.8373238 9.25493067 0.11692288 12.52944207 -3 16 C-6.99550663 17.68699169 -8.64789659 17.13726065 -12.6875 15.5625 C-13.68330078 15.13710937 -13.68330078 15.13710937 -14.69921875 14.703125 C-19.02829671 13.38014702 -23.52103061 13.77769821 -28 14 C-28 15.32 -28 16.64 -28 18 C-24.10859482 19.71485652 -20.3607775 20.59279804 -16.1875 21.375 C-7.22327125 23.25973847 -1.33971272 25.39495461 4 33 C6.1825979 39.54779371 6.301734 48.22326702 3.375 54.5625 C0.25569504 59.70990429 -4.18047574 63.29672461 -10 65 C-24.15750973 67.3773262 -37.64030428 67.62540259 -49.78125 59.03125 C-52 57 -52 57 -52.6875 53.75 C-51.71209792 48.42962504 -48.7888292 44.7888292 -45 41 C-40.21550906 41.20802135 -36.80723287 42.46821184 -32.5 44.5625 C-26.79700945 47.28082104 -23.11122663 48.03707554 -17 46 C-17.33 45.01 -17.66 44.02 -18 43 C-20.52121505 42.23763259 -22.92890256 41.64849664 -25.5 41.125 C-33.17688083 39.38110545 -39.68030319 37.31969681 -45.375 31.625 C-49.87032946 24.36331395 -51.00170978 18.56006543 -50 10 C-48.47872408 4.49443 -45.65260376 1.17688311 -40.9765625 -1.9921875 C-28.67841453 -8.26278468 -11.82636148 -6.52625299 0 0 Z " fill="#FBFBFE" transform="translate(288,226)"/>
<path d="M0 0 C8.32698345 4.59031003 14.90357533 11.33572598 17.9375 20.4375 C18.79525529 30.58994782 17.38557645 37.31464357 11.75 45.6875 C8.23543705 49.12396155 3.1110773 53.4375 -2.0625 53.4375 C-2.145 54.55125 -2.2275 55.665 -2.3125 56.8125 C-3.0625 60.4375 -3.0625 60.4375 -4.76953125 61.63671875 C-9.144939 63.16475723 -13.50661092 63.05753224 -18.0625 62.4375 C-21.25 60.625 -21.25 60.625 -23.0625 57.4375 C-23.96800694 52.84629684 -24.11027311 48.58425318 -22.0234375 44.30859375 C-18.76488663 40.09432266 -14.97912848 38.27436628 -10.12109375 36.31640625 C-7.29030366 35.10781465 -5.73052807 34.04832655 -4.0625 31.4375 C-3.49174527 28.47558335 -3.6695345 26.53210333 -4.0625 23.4375 C-6.9017689 20.5982311 -9.10417487 20.00603403 -13.0625 20 C-16.36065987 20.1113916 -17.7149758 20.2058172 -20.5 22.0625 C-22.27228426 24.75637208 -23.67205741 27.53021095 -25.0625 30.4375 C-27.0625 32.4375 -27.0625 32.4375 -29.015625 32.5546875 C-35.40140857 31.88135658 -39.43627103 30.06372897 -44.0625 25.4375 C-45.28183786 18.29566394 -40.68582799 12.94627962 -37 7.25 C-28.02999057 -2.60321036 -12.13730451 -4.80872445 0 0 Z " fill="#FAFAFD" transform="translate(401.0625,194.5625)"/>
<path d="M0 0 C2.8984375 1.5703125 2.8984375 1.5703125 5 4 C5.6640625 7.49609375 5.6640625 7.49609375 5.625 11.4375 C5.63789063 12.73558594 5.65078125 14.03367187 5.6640625 15.37109375 C4.83806759 19.88491298 3.71751553 21.34964189 0 24 C-5.95599976 25.1718981 -11.87973441 25.02086862 -17.375 22.375 C-20.09416699 16.72749932 -19.84846692 11.12944205 -19 5 C-15.59606181 -2.06971777 -6.89400032 -1.15697922 0 0 Z " fill="#FAFBFD" transform="translate(395,267)"/>
<path d="M0 0 C3.51656033 1.69548444 5.3458331 2.92954507 7.375 6.25 C8.36292661 10.59687709 9.20826842 14.72825566 7.0546875 18.77734375 C3.4637132 23.3959239 0.24235299 24.70932461 -5.375 25.4375 C-9.95860234 24.88430661 -12.65827856 23.11516406 -16 20 C-17.98141781 16.03716439 -17.55820645 11.30789762 -17 7 C-13.21691286 -0.31208634 -7.51200844 -0.82954694 0 0 Z " fill="#132ABD" transform="translate(198,244)"/>
<path d="M0 0 C3.55615894 0.73062902 5.62357733 1.78533104 7.8984375 4.62890625 C9.49698017 8.22562726 9.62815731 10.53511636 9.1484375 14.44140625 C7.5202429 17.52334603 6.11834688 19.70561292 3.3359375 21.81640625 C0.09219935 22.74318858 -2.49417742 22.79481521 -5.8515625 22.44140625 C-9.07774983 20.36230775 -10.7184927 18.64101096 -12.8515625 15.44140625 C-13.51404999 10.4727501 -13.42110904 7.5396525 -10.4140625 3.44140625 C-7.18023432 0.06931463 -4.54474952 -0.24717059 0 0 Z " fill="#142BBD" transform="translate(118.8515625,244.55859375)"/>
<path d="M0 0 C1.32 0 2.64 0 4 0 C4 1.65 4 3.3 4 5 C4.78375 4.95875 5.5675 4.9175 6.375 4.875 C9 5 9 5 11 7 C11.1953125 9.1640625 11.1953125 9.1640625 11.125 11.625 C11.10695313 12.44226563 11.08890625 13.25953125 11.0703125 14.1015625 C11.03550781 15.04128906 11.03550781 15.04128906 11 16 C9.68 16 8.36 16 7 16 C7 13.69 7 11.38 7 9 C6.01 9 5.02 9 4 9 C4 11.31 4 13.62 4 16 C2.68 16 1.36 16 0 16 C0 10.72 0 5.44 0 0 Z " fill="#E9EBF9" transform="translate(384,312)"/>
<path d="M0 0 C2.27864583 0.06510417 4.55729167 0.13020833 6.8359375 0.1953125 C6.8359375 3.8253125 6.8359375 7.4553125 6.8359375 11.1953125 C-0.52084642 11.55712155 -0.52084642 11.55712155 -3.1640625 10.0703125 C-4.62076462 7.33899603 -4.48745604 5.23521173 -4.1640625 2.1953125 C-2.1640625 0.1953125 -2.1640625 0.1953125 0 0 Z " fill="#E0E3F6" transform="translate(375.1640625,316.8046875)"/>
<path d="M0 0 C1.875 1.1875 1.875 1.1875 3 3 C3.42822025 5.85480169 3.40659584 7.34492892 1.875 9.8125 C-0.87155972 11.55198782 -2.81846974 11.39769128 -6 11 C-7.9375 9.9375 -7.9375 9.9375 -9 8 C-8.8125 4.375 -8.8125 4.375 -8 1 C-5.20129973 -0.39935013 -3.09501208 -0.25265405 0 0 Z " fill="#D7DBF3" transform="translate(339,317)"/>
<path d="M0 0 C6.8359375 -0.1953125 6.8359375 -0.1953125 9 0 C11 2 11 2 11.1953125 4.1640625 C11.17210937 4.97617187 11.14890625 5.78828125 11.125 6.625 C11.10695313 7.44226563 11.08890625 8.25953125 11.0703125 9.1015625 C11.03550781 10.04128906 11.03550781 10.04128906 11 11 C9.68 10.67 8.36 10.34 7 10 C7 8.02 7 6.04 7 4 C6.01 4 5.02 4 4 4 C4 6.31 4 8.62 4 11 C2.68 11 1.36 11 0 11 C0 7.37 0 3.74 0 0 Z " fill="#EAECF9" transform="translate(358,317)"/>
<path d="M0 0 C2.97 0 5.94 0 9 0 C8.67 1.32 8.34 2.64 8 4 C6.68 4 5.36 4 4 4 C4 6.31 4 8.62 4 11 C2.68 11 1.36 11 0 11 C0 7.37 0 3.74 0 0 Z " fill="#E6E8F8" transform="translate(343,317)"/>
</svg>
